<svg width="32" height="32" viewBox="0 0 32 32" fill="none" xmlns="http://www.w3.org/2000/svg">
<path fill-rule="evenodd" clip-rule="evenodd" d="M6.79995 3.2002C5.84517 3.2002 4.9295 3.57948 4.25437 4.25461C3.57924 4.92974 3.19995 5.84542 3.19995 6.8002V10.8002C3.19995 11.755 3.57924 12.6706 4.25437 13.3458C4.9295 14.0209 5.84517 14.4002 6.79995 14.4002H10.8C11.7547 14.4002 12.6704 14.0209 13.3455 13.3458C14.0207 12.6706 14.4 11.755 14.4 10.8002V6.8002C14.4 5.84542 14.0207 4.92974 13.3455 4.25461C12.6704 3.57948 11.7547 3.2002 10.8 3.2002H6.79995ZM6.79995 17.6002C5.84517 17.6002 4.9295 17.9795 4.25437 18.6546C3.57924 19.3297 3.19995 20.2454 3.19995 21.2002V25.2002C3.19995 26.155 3.57924 27.0706 4.25437 27.7458C4.9295 28.4209 5.84517 28.8002 6.79995 28.8002H10.8C11.7547 28.8002 12.6704 28.4209 13.3455 27.7458C14.0207 27.0706 14.4 26.155 14.4 25.2002V21.2002C14.4 20.2454 14.0207 19.3297 13.3455 18.6546C12.6704 17.9795 11.7547 17.6002 10.8 17.6002H6.79995ZM21.1999 3.2002C20.2452 3.2002 19.3295 3.57948 18.6544 4.25461C17.9792 4.92974 17.6 5.84542 17.6 6.8002V10.8002C17.5999 11.755 17.9792 12.6706 18.6544 13.3458C19.3295 14.0209 20.2452 14.4002 21.1999 14.4002H25.1999C26.1547 14.4002 27.0704 14.0209 27.7455 13.3458C28.4207 12.6706 28.7999 11.755 28.7999 10.8002V6.8002C28.7999 5.84542 28.4207 4.92974 27.7455 4.25461C27.0704 3.57948 26.1547 3.2002 25.1999 3.2002H21.1999ZM21.1999 17.6002C20.2452 17.6002 19.3295 17.9795 18.6544 18.6546C17.9792 19.3297 17.6 20.2454 17.6 21.2002V25.2002C17.5999 26.155 17.9792 27.0706 18.6544 27.7458C19.3295 28.4209 20.2452 28.8002 21.1999 28.8002H25.1999C26.1547 28.8002 27.0704 28.4209 27.7455 27.7458C28.4207 27.0706 28.7999 26.155 28.7999 25.2002V21.2002C28.7999 20.2454 28.4207 19.3297 27.7455 18.6546C27.0704 17.9795 26.1547 17.6002 25.1999 17.6002H21.1999Z" fill="#75787B"/>
</svg>
