<svg width="32" height="32" viewBox="0 0 32 32" fill="none" xmlns="http://www.w3.org/2000/svg">
<path fill-rule="evenodd" clip-rule="evenodd" d="M12.544 2.8865C12.6164 2.52392 12.8122 2.19764 13.0981 1.96312C13.384 1.7286 13.7422 1.60032 14.112 1.6001H17.888C18.2577 1.60032 18.616 1.7286 18.9018 1.96312C19.1877 2.19764 19.3835 2.52392 19.456 2.8865L19.9856 5.5297C21.1031 5.9556 22.1451 6.5579 23.072 7.3137L25.6288 6.4497C25.979 6.33133 26.3594 6.33789 26.7053 6.46828C27.0513 6.59866 27.3414 6.84481 27.5264 7.1649L29.4144 10.4353C29.5994 10.7554 29.6679 11.1298 29.6081 11.4947C29.5483 11.8596 29.3639 12.1926 29.0864 12.4369L27.0592 14.2177C27.2482 15.3984 27.2482 16.6017 27.0592 17.7825L29.0864 19.5633C29.3638 19.8073 29.5482 20.1399 29.6083 20.5044C29.6683 20.869 29.6004 21.2431 29.416 21.5633L27.528 24.8353C27.3429 25.1557 27.0525 25.4021 26.7063 25.5325C26.36 25.6629 25.9792 25.6693 25.6288 25.5505L23.072 24.6865C22.1451 25.4423 21.1031 26.0446 19.9856 26.4705L19.4576 29.1137C19.3851 29.4763 19.1893 29.8026 18.9034 30.0371C18.6176 30.2716 18.2593 30.3999 17.8896 30.4001H14.112C13.7422 30.3999 13.384 30.2716 13.0981 30.0371C12.8122 29.8026 12.6164 29.4763 12.544 29.1137L12.0144 26.4705C10.8968 26.0446 9.85481 25.4423 8.92796 24.6865L6.37116 25.5505C6.02093 25.6689 5.64052 25.6623 5.29459 25.5319C4.94865 25.4015 4.65854 25.1554 4.47356 24.8353L2.58556 21.5649C2.40052 21.2448 2.33207 20.8704 2.39187 20.5055C2.45167 20.1406 2.63602 19.8076 2.91356 19.5633L4.94076 17.7809C4.75198 16.6007 4.75198 15.3979 4.94076 14.2177L2.91356 12.4369C2.63614 12.1929 2.45174 11.8603 2.39166 11.4957C2.33158 11.1312 2.39952 10.7571 2.58396 10.4369L4.47196 7.1649C4.657 6.84446 4.94738 6.59807 5.29366 6.46767C5.63995 6.33726 6.02072 6.33091 6.37116 6.4497L8.92796 7.3137C9.85528 6.55773 10.8979 5.95542 12.016 5.5297L12.544 2.8865ZM16 20.8001C17.273 20.8001 18.4939 20.2944 19.3941 19.3942C20.2943 18.494 20.8 17.2731 20.8 16.0001C20.8 14.7271 20.2943 13.5062 19.3941 12.606C18.4939 11.7058 17.273 11.2001 16 11.2001C14.7269 11.2001 13.506 11.7058 12.6059 12.606C11.7057 13.5062 11.2 14.7271 11.2 16.0001C11.2 17.2731 11.7057 18.494 12.6059 19.3942C13.506 20.2944 14.7269 20.8001 16 20.8001Z" fill="#75787B"/>
</svg>
