<svg width="54" height="30" viewBox="0 0 54 30" fill="none" xmlns="http://www.w3.org/2000/svg">
<path d="M28.508 5.616C28.508 4.704 28.784 3.948 29.336 3.348C29.912 2.772 30.62 2.484 31.46 2.484C32.3 2.484 32.996 2.772 33.548 3.348C34.124 3.948 34.412 4.704 34.412 5.616C34.412 6.504 34.124 7.236 33.548 7.812C32.996 8.388 32.3 8.676 31.46 8.676C30.62 8.676 29.912 8.388 29.336 7.812C28.784 7.236 28.508 6.504 28.508 5.616ZM19.292 8.928L9.176 4.716V1.476L19.292 3.816V8.928ZM6.908 12.8599H7.412C9.908 15.2839 12.848 17.1439 16.232 18.4399C19.64 19.7599 23.168 20.4199 26.816 20.4199C30.56 20.4199 34.196 19.7239 37.724 18.3319C41.252 16.9639 44.276 14.9599 46.796 12.3199H47.264V17.3959C44.96 19.9639 41.996 21.9199 38.372 23.2639C34.772 24.6079 30.92 25.2799 26.816 25.2799C22.808 25.2799 19.052 24.6319 15.548 23.3359C12.044 22.0639 9.164 20.2639 6.908 17.9359V12.8599Z" fill="#00BFA6"/>
</svg>
